<?xml version="1.0" standalone="no"?><!DOCTYPE svg PUBLIC "-//W3C//DTD SVG 1.1//EN" "http://www.w3.org/Graphics/SVG/1.1/DTD/svg11.dtd"><svg t="1495101980643" class="icon" style="" viewBox="0 0 1024 1024" version="1.1" xmlns="http://www.w3.org/2000/svg" p-id="16404" xmlns:xlink="http://www.w3.org/1999/xlink" width="200" height="200"><defs><style type="text/css"></style></defs><path d="M512 1024c-281.6 0-512-230.4-512-512s230.4-512 512-512 512 230.4 512 512S793.6 1024 512 1024zM512 38.4C249.6 38.4 38.4 249.6 38.4 512s211.2 473.6 473.6 473.6 473.6-211.2 473.6-473.6S774.4 38.4 512 38.4z" p-id="16405"></path><path d="M646.4 588.8C640 595.2 640 608 652.8 614.4c57.6 44.8 89.6 115.2 89.6 185.6 0 12.8 6.4 19.2 19.2 19.2 12.8 0 19.2-6.4 19.2-19.2 0-83.2-38.4-160-102.4-211.2C665.6 582.4 652.8 582.4 646.4 588.8L646.4 588.8 646.4 588.8M262.4 819.2c12.8 0 19.2-6.4 19.2-19.2 0-128 102.4-230.4 230.4-230.4 96 0 179.2-83.2 179.2-179.2 0-96-76.8-179.2-179.2-179.2S332.8 288 332.8 384c0 64 38.4 128 89.6 160-108.8 38.4-179.2 140.8-179.2 256C249.6 812.8 256 819.2 262.4 819.2L262.4 819.2 262.4 819.2M512 243.2c76.8 0 140.8 64 140.8 140.8 0 76.8-64 140.8-140.8 140.8-76.8 0-140.8-64-140.8-140.8C371.2 307.2 435.2 243.2 512 243.2L512 243.2 512 243.2M512 243.2" p-id="16406"></path></svg>