<?xml version="1.0" standalone="no"?><!DOCTYPE svg PUBLIC "-//W3C//DTD SVG 1.1//EN" "http://www.w3.org/Graphics/SVG/1.1/DTD/svg11.dtd"><svg t="1495616960767" class="icon" style="" viewBox="0 0 1000 1000" version="1.1" xmlns="http://www.w3.org/2000/svg" p-id="3636" xmlns:xlink="http://www.w3.org/1999/xlink" width="200" height="200"><defs><style type="text/css"></style></defs><path d="M77.3138 110.6939l118.1708 0 0 117.7322-118.1708 0 0-117.7322ZM317.3492 110.6939l632.7806 0 0 117.7322-632.7806 0 0-117.7322ZM77.3138 434.1307l118.1708 0 0 117.7322-118.1708 0 0-117.7322ZM317.3492 434.1307l632.7806 0 0 117.7322-632.7806 0 0-117.7322ZM77.3138 737.1492l118.1708 0 0 117.5143-118.1708 0 0-117.5143ZM317.3492 737.1492l632.7806 0 0 117.5143-632.7806 0 0-117.5143Z" p-id="3637"></path></svg>