<?xml version="1.0" standalone="no"?><!DOCTYPE svg PUBLIC "-//W3C//DTD SVG 1.1//EN" "http://www.w3.org/Graphics/SVG/1.1/DTD/svg11.dtd"><svg t="1495102171624" class="icon" style="" viewBox="0 0 1024 1024" version="1.1" xmlns="http://www.w3.org/2000/svg" p-id="2329" xmlns:xlink="http://www.w3.org/1999/xlink" width="200" height="200"><defs><style type="text/css"></style></defs><path d="M512 40.96C229.23264 40.96 0 243.11808 0 492.48256c0 125.41952 49.41824 226.34496 143.03232 308.16256 10.11712 35.88096-77.06624 141.23008-121.26208 182.39488 105.92256-7.35232 310.84544-63.05792 310.84544-63.05792s126.73024 24.02304 179.4048 24.02304c282.76736 0 512-202.15808 512-451.52256S794.76736 40.96 512 40.96z m3.52256 866.07872c-47.94368 0-182.39488-27.99616-182.39488-27.99616s-106.98752 38.6048-209.38752 50.23744c40.22272-37.45792 61.50144-105.53344 63.81568-141.27104-85.1968-74.4448-140.51328-177.8688-140.51328-292.00384 0-226.9184 211.16928-410.7264 468.48-410.7264s465.92 183.95136 465.92 410.89024c0 226.9184-208.60928 410.86976-465.92 410.86976z" fill="" p-id="2330"></path><path d="M264.31488 512m-60.80512 0a60.80512 60.80512 0 1 0 121.61024 0 60.80512 60.80512 0 1 0-121.61024 0Z" fill="" p-id="2331"></path><path d="M510.07488 512m-60.80512 0a60.80512 60.80512 0 1 0 121.61024 0 60.80512 60.80512 0 1 0-121.61024 0Z" fill="" p-id="2332"></path><path d="M755.83488 512m-60.80512 0a60.80512 60.80512 0 1 0 121.61024 0 60.80512 60.80512 0 1 0-121.61024 0Z" fill="" p-id="2333"></path></svg>