<?xml version="1.0" standalone="no"?><!DOCTYPE svg PUBLIC "-//W3C//DTD SVG 1.1//EN" "http://www.w3.org/Graphics/SVG/1.1/DTD/svg11.dtd"><svg t="1495101889574" class="icon" style="" viewBox="0 0 1024 1024" version="1.1" xmlns="http://www.w3.org/2000/svg" p-id="12986" xmlns:xlink="http://www.w3.org/1999/xlink" width="200" height="200"><defs><style type="text/css"></style></defs><path d="M863.999998 415.96836C863.982901 221.578669 706.393685 64 512 64 317.606315 64 160.017099 221.578669 160.000001 415.96836L160.000001 415.96836C159.99995 415.998246 159.999981 416.02815 160.000104 416.058232 160.000295 416.112029 160.000753 416.165763 160.001474 416.219434 160.046431 419.980714 160.380628 426.647824 161.240587 435.812466 162.659587 450.934837 165.086921 467.735011 168.764745 485.80144 179.266223 537.38744 197.698077 588.987629 226.064119 637.257558 259.250719 693.730536 303.966236 741.825936 361.631883 778.775616 369.072102 783.54299 378.968312 781.376222 383.735686 773.936003 388.503061 766.495782 386.336293 756.599573 378.896072 751.832198 325.636574 717.70579 284.37754 673.328136 253.653014 621.044819 227.218131 576.061106 209.959966 527.746674 200.1216 479.418054 196.680478 462.514365 194.416134 446.842288 193.100632 432.822894 192.330624 424.616874 192.038514 418.842325 192.000013 415.907754 192.049856 239.219029 335.29963 96 512 96 688.70037 96 831.950144 239.219029 831.999987 415.907754 831.961486 418.842325 831.669376 424.616874 830.899368 432.822894 829.583866 446.842288 827.319522 462.514365 823.8784 479.418054 814.040034 527.746674 796.781869 576.061106 770.346987 621.044819 739.622461 673.328136 698.363426 717.70579 645.103928 751.832198 637.663707 756.599573 635.496939 766.495782 640.264314 773.936003 645.031688 781.376222 654.927898 783.54299 662.368117 778.775616 720.033765 741.825936 764.749282 693.730536 797.935882 637.257558 826.301923 588.987629 844.733776 537.38744 855.235256 485.80144 858.913078 467.735011 861.340413 450.934837 862.759413 435.812466 863.619373 426.647824 863.953568 419.980714 863.998526 416.219434 863.999248 416.165763 863.999704 416.112029 863.999896 416.058232 864.000019 416.02815 864.00005 415.998246 863.999998 415.96836Z" p-id="12987"></path><path d="M370.090467 781.514765 652.454331 781.514765C661.290886 781.514765 668.454331 774.35132 668.454331 765.514765 668.454331 756.678208 661.290886 749.514765 652.454331 749.514765L370.090467 749.514765C361.25391 749.514765 354.090467 756.678208 354.090467 765.514765 354.090467 774.35132 361.25391 781.514765 370.090467 781.514765ZM384 864 640 864C648.836555 864 656 856.836555 656 848 656 839.163445 648.836555 832 640 832L384 832C375.163445 832 368 839.163445 368 848 368 856.836555 375.163445 864 384 864ZM416 960 608 960C616.836555 960 624 952.836555 624 944 624 935.163445 616.836555 928 608 928L416 928C407.163445 928 400 935.163445 400 944 400 952.836555 407.163445 960 416 960Z" p-id="12988"></path></svg>