<?xml version="1.0" standalone="no"?><!DOCTYPE svg PUBLIC "-//W3C//DTD SVG 1.1//EN" "http://www.w3.org/Graphics/SVG/1.1/DTD/svg11.dtd"><svg t="1495617271618" class="icon" style="" viewBox="0 0 1024 1024" version="1.1" xmlns="http://www.w3.org/2000/svg" p-id="5129" xmlns:xlink="http://www.w3.org/1999/xlink" width="200" height="200"><defs><style type="text/css"></style></defs><path d="M825.6 1024c-70.4 0-160-32-256-83.2-89.6-51.2-185.6-128-275.2-217.6C204.8 627.2 134.4 537.6 83.2 441.6c-25.6-44.8-44.8-89.6-64-134.4C6.4 268.8 0 230.4 0 198.4c0-19.2 6.4-38.4 19.2-51.2C25.6 134.4 44.8 108.8 64 96c19.2-19.2 70.4-64 89.6-76.8l19.2-12.8C179.2 0 192 0 204.8 6.4c0 0 0 0 6.4 6.4 6.4 6.4 19.2 12.8 25.6 25.6C256 57.6 275.2 83.2 294.4 115.2c32 51.2 57.6 102.4 70.4 128 0 6.4 0 12.8 0 12.8 0 6.4-6.4 12.8-25.6 38.4C326.4 307.2 313.6 320 313.6 326.4c-6.4 12.8-6.4 25.6 0 44.8l0 6.4c6.4 32 12.8 64 44.8 102.4C377.6 512 403.2 544 435.2 576c32 32 64 57.6 89.6 83.2C569.6 691.2 595.2 704 620.8 704c38.4 0 70.4-19.2 96-32 19.2-6.4 32-19.2 51.2-19.2 6.4 0 6.4 0 12.8 0 19.2 6.4 64 32 134.4 76.8 70.4 51.2 102.4 83.2 108.8 89.6C1024 825.6 1024 832 1024 844.8c-6.4 38.4-64 108.8-89.6 128-19.2 19.2-38.4 32-57.6 38.4C857.6 1017.6 844.8 1024 825.6 1024zM185.6 57.6 185.6 57.6C166.4 70.4 115.2 115.2 102.4 134.4 83.2 147.2 70.4 160 64 179.2 57.6 192 51.2 198.4 51.2 198.4c0 25.6 6.4 57.6 19.2 89.6C83.2 332.8 102.4 371.2 128 416c51.2 89.6 121.6 179.2 204.8 262.4 83.2 89.6 172.8 160 262.4 211.2 89.6 51.2 166.4 76.8 230.4 76.8 6.4 0 19.2 0 32-6.4 12.8-6.4 25.6-19.2 38.4-25.6 25.6-19.2 57.6-64 70.4-89.6-12.8-12.8-44.8-38.4-89.6-70.4-57.6-38.4-96-57.6-108.8-70.4-6.4 0-19.2 6.4-25.6 12.8-32 12.8-70.4 38.4-121.6 38.4-38.4 0-76.8-19.2-128-57.6-32-25.6-64-51.2-96-89.6-32-32-64-70.4-83.2-96C275.2 467.2 268.8 428.8 262.4 390.4L256 384C249.6 358.4 243.2 332.8 262.4 300.8c6.4-6.4 12.8-19.2 25.6-38.4C294.4 256 300.8 249.6 307.2 249.6 294.4 224 275.2 185.6 249.6 140.8 230.4 115.2 211.2 89.6 192 70.4 192 70.4 185.6 64 185.6 57.6z" p-id="5130"></path></svg>