<?xml version="1.0" standalone="no"?><!DOCTYPE svg PUBLIC "-//W3C//DTD SVG 1.1//EN" "http://www.w3.org/Graphics/SVG/1.1/DTD/svg11.dtd"><svg t="1495099447971" class="icon" style="" viewBox="0 0 1024 1024" version="1.1" xmlns="http://www.w3.org/2000/svg" p-id="1429" xmlns:xlink="http://www.w3.org/1999/xlink" width="200" height="200"><defs><style type="text/css"></style></defs><path d="M1004.25326 428.898327l-132.671649-21.673625c-7.797593-27.015284-18.562774-52.997028-32.121582-77.525678l77.43358-110.373807c5.710049-8.135284 4.748141-19.197224-2.281973-26.227338l-86.581937-86.541005c-7.091512-7.091512-18.276249-7.992021-26.411533-2.13871l-108.74675 78.160127c-24.723078-13.763468-50.89925-24.641213-78.078263-32.469506L591.635735 17.948791C589.916581 8.165983 581.412906 1.023306 571.476603 1.023306L449.038016 1.023306c-10.028401 0-18.583241 7.265474-20.189831 17.160845l-21.458731 131.443681c-27.383674 7.777127-53.600779 18.542308-78.231759 32.131815l-108.429525-77.464279c-8.145517-5.812379-19.299555-4.891404-26.370601 2.179642l-86.581937 86.541005c-7.019881 7.019881-7.992021 18.071587-2.302439 26.206872l76.328409 109.156072c-13.855566 24.917506-24.825408 51.308573-32.735565 78.722946L18.154475 428.90856C8.27957 430.54585 1.044796 439.090457 1.044796 449.098391l0 122.428354c0 9.92607 7.122211 18.419512 16.894785 20.148899l130.901329 23.198352c7.858992 27.40414 18.818601 53.784974 32.715099 78.722946l-77.259618 108.061135c-5.812379 8.145517-4.901637 19.289322 2.169409 26.370601l86.551238 86.633103c7.019881 7.030114 18.081821 8.002254 26.217105 2.292206l109.319801-76.56377c24.835641 13.743002 51.114145 24.600281 78.395488 32.387641l21.908986 131.586944c1.63729 9.874905 10.181897 17.10968 20.179598 17.10968l122.438587 0c9.915837 0 18.409279-7.122211 20.148899-16.894785l23.464411-132.221394c27.27111-7.930623 53.426817-18.879999 78.037331-32.663934l110.097514 77.249385c8.135284 5.720282 19.197224 4.748141 26.227338-2.281973l86.561471-86.633103c7.091512-7.091512 7.992021-18.286482 2.13871-26.421766l-78.528518-109.053742c13.56904-24.569582 24.303522-50.561559 32.029484-77.56661l132.835378-23.300682c9.79304-1.719154 16.935718-10.222829 16.935718-20.159132L1021.424338 449.098391C1021.424338 439.069991 1014.148631 430.515151 1004.25326 428.898327zM980.49209 554.335201 851.719238 576.919569c-7.981788 1.401929-14.387685 7.378038-16.331967 15.237029-7.951089 32.121582-20.61962 62.769602-37.637202 91.104951-4.205788 7.009647-3.837398 15.851013 0.941442 22.49227l76.072583 105.656365-62.104453 62.155618L705.898105 798.649556c-6.661723-4.676509-15.451924-4.963035-22.400173-0.726547-28.233018 17.191544-58.95267 30.064736-91.319845 38.240953-7.797593 1.974981-13.722536 8.339946-15.134699 16.270569l-22.727631 128.107703-87.932702 0L445.159686 853.03828c-1.340531-8.063653-7.347339-14.551414-15.288195-16.516162-32.356942-7.981788-63.260789-20.742417-91.841731-37.913495-6.927783-4.175089-15.656585-3.868097-22.277376 0.777713l-105.922425 74.189699-62.145385-62.206784 74.865081-104.714923c4.758374-6.65149 5.096065-15.503089 0.849344-22.502503-17.355273-28.662807-30.238698-59.648518-38.292118-92.077092-1.944282-7.848759-8.329712-13.814634-16.291035-15.226796L41.977044 554.3659l0-87.932702 126.787638-21.110807c8.043187-1.340531 14.520715-7.316639 16.495696-15.226796 8.125051-32.510438 21.018709-63.526849 38.312584-92.179422 4.185322-6.927783 3.888564-15.666818-0.747014-22.297842l-73.974805-105.789395 62.186318-62.145385 105.032148 75.039044c6.641257 4.737908 15.462157 5.085832 22.451338 0.880043 28.284183-17.007349 59.177797-29.696346 91.811032-37.708833 7.961322-1.954515 13.998829-8.483208 15.318894-16.57756L466.434222 41.955554l87.850837 0 22.441105 128.056538c1.391696 7.971555 7.347339 14.367219 15.20633 16.331967 32.264844 8.043187 63.066361 20.865213 91.534739 38.09769 7.009647 4.246721 15.881712 3.898797 22.543436-0.890276l105.380072-75.755358 62.124919 62.09422-75.049277 106.97643c-4.64581 6.620791-4.963035 15.359826-0.787946 22.287609 16.986883 28.284183 29.67588 58.942437 37.719066 91.094718 1.974981 7.930623 8.483208 13.927197 16.557094 15.237029l128.537492 20.998243L980.49209 554.335201 980.49209 554.335201z" p-id="1430"></path><path d="M694.938496 511.243777c0 11.307533-9.15859 20.466124-20.466124 20.466124-11.2973 0-20.466124-9.15859-20.466124-20.466124 0-78.722946-64.048735-142.771681-142.771681-142.771681S368.462886 432.520831 368.462886 511.243777s64.048735 142.771681 142.771681 142.771681c32.940227 0 63.885006-10.898211 89.488127-31.517831 8.800433-7.091512 21.683858-5.710049 28.77537 3.100618 7.091512 8.800433 5.699816 21.683858-3.100618 28.77537-32.479739 26.165939-73.381287 40.574091-115.16288 40.574091-101.297081 0-183.703929-82.406848-183.703929-183.703929s82.406848-183.703929 183.703929-183.703929S694.938496 409.946696 694.938496 511.243777z" p-id="1431"></path></svg>